{
  "accessors": [
    {
      "bufferView": 2,
      "componentType": 5126,
      "count": 16208,
      "max": [
        1.346400260925293,
        2.513847827911377,
        3.415982723236084
      ],
      "min": [
        -1.346400260925293,
        0.14633454382419586,
        -3.682415246963501
      ],
      "type": "VEC3"
    },
    {
      "bufferView": 2,
      "byteOffset": 194496,
      "componentType": 5126,
      "count": 16208,
      "max": [
        1.0,
        1.0,
        1.0
      ],
      "min": [
        -1.0,
        -1.0,
        -1.0
      ],
      "type": "VEC3"
    },
    {
      "bufferView": 1,
      "componentType": 5126,
      "count": 16208,
      "max": [
        0.29474952816963196,
        0.9441488981246948
      ],
      "min": [
        0.012886591255664825,
        0.8105876445770264
      ],
      "type": "VEC2"
    },
    {
      "bufferView": 0,
      "componentType": 5125,
      "count": 16920,
      "type": "SCALAR"
    },
    {
      "bufferView": 2,
      "byteOffset": 388992,
      "componentType": 5126,
      "count": 884,
      "max": [
        0.6646345853805542,
        0.29189419746398926,
        1.6948182582855225
      ],
      "min": [
        -0.6608948707580566,
        -0.1846938133239746,
        -0.6795337200164795
      ],
      "type": "VEC3"
    },
    {
      "bufferView": 2,
      "byteOffset": 399600,
      "componentType": 5126,
      "count": 884,
      "max": [
        1.0,
        1.0,
        1.0
      ],
      "min": [
        -1.0,
        -1.0,
        -1.0
      ],
      "type": "VEC3"
    },
    {
      "bufferView": 1,
      "byteOffset": 129664,
      "componentType": 5126,
      "count": 884,
      "max": [
        0.289948433637619,
        0.9375
      ],
      "min": [
        0.019329894334077835,
        0.8042207956314087
      ],
      "type": "VEC2"
    },
    {
      "bufferView": 0,
      "byteOffset": 67680,
      "componentType": 5125,
      "count": 936,
      "type": "SCALAR"
    },
    {
      "bufferView": 2,
      "byteOffset": 410208,
      "componentType": 5126,
      "count": 5576,
      "max": [
        1.3736599683761597,
        0.8658177852630615,
        2.394359827041626
      ],
      "min": [
        -1.3736599683761597,
        -0.23819759488105774,
        -2.8337273597717285
      ],
      "type": "VEC3"
    },
    {
      "bufferView": 2,
      "byteOffset": 477120,
      "componentType": 5126,
      "count": 5576,
      "max": [
        1.0,
        0.9622111320495605,
        0.962211012840271
      ],
      "min": [
        -1.0,
        -0.9622111320495605,
        -0.9622116684913635
      ],
      "type": "VEC3"
    },
    {
      "bufferView": 1,
      "byteOffset": 136736,
      "componentType": 5126,
      "count": 5576,
      "max": [
        0.2875061631202698,
        0.8955291509628296
      ],
      "min": [
        0.24762505292892456,
        0.8483908772468567
      ],
      "type": "VEC2"
    },
    {
      "bufferView": 0,
      "byteOffset": 71424,
      "componentType": 5125,
      "count": 5712,
      "type": "SCALAR"
    },
    {
      "bufferView": 2,
      "byteOffset": 544032,
      "componentType": 5126,
      "count": 3734,
      "max": [
        1.2669833898544312,
        1.6663665771484375,
        2.772456645965576
      ],
      "min": [
        -1.2669833898544312,
        0.5165950059890747,
        -3.6567702293395996
      ],
      "type": "VEC3"
    },
    {
      "bufferView": 2,
      "byteOffset": 588840,
      "componentType": 5126,
      "count": 3734,
      "max": [
        1.0,
        1.0,
        1.0
      ],
      "min": [
        -1.0,
        -1.0,
        -1.0
      ],
      "type": "VEC3"
    },
    {
      "bufferView": 1,
      "byteOffset": 181344,
      "componentType": 5126,
      "count": 3734,
      "max": [
        0.29639172554016113,
        0.9414770007133484
      ],
      "min": [
        0.015113795176148415,
        0.8896515369415283
      ],
      "type": "VEC2"
    },
    {
      "bufferView": 0,
      "byteOffset": 94272,
      "componentType": 5125,
      "count": 3936,
      "type": "SCALAR"
    },
    {
      "bufferView": 2,
      "byteOffset": 633648,
      "componentType": 5126,
      "count": 2398,
      "max": [
        -0.9060884714126587,
        1.5869076251983643,
        -1.0121638774871826
      ],
      "min": [
        -1.2881605625152588,
        1.1262587308883667,
        -1.7177904844284058
      ],
      "type": "VEC3"
    },
    {
      "bufferView": 2,
      "byteOffset": 662424,
      "componentType": 5126,
      "count": 2398,
      "max": [
        0.9553277492523193,
        0.953295111656189,
        1.0
      ],
      "min": [
        -0.9657371044158936,
        -0.9684255719184875,
        -1.0
      ],
      "type": "VEC3"
    },
    {
      "bufferView": 1,
      "byteOffset": 211216,
      "componentType": 5126,
      "count": 2398,
      "max": [
        0.24465090036392212,
        0.9372420907020569
      ],
      "min": [
        0.01636495813727379,
        0.8943169116973877
      ],
      "type": "VEC2"
    },
    {
      "bufferView": 0,
      "byteOffset": 110016,
      "componentType": 5125,
      "count": 2400,
      "type": "SCALAR"
    }
  ],
  "asset": {
    "extras": {
      "author": "veightyfive (https://sketchfab.com/veightyfive)",
      "license": "CC-BY-4.0 (http://creativecommons.org/licenses/by/4.0/)",
      "source": "https://sketchfab.com/3d-models/low-poly-btr-70-40a2c8b05c1442629fe921e9dfd0a8ae",
      "title": "Low-poly BTR-70"
    },
    "generator": "Sketchfab-14.5.0",
    "version": "2.0"
  },
  "bufferViews": [
    {
      "buffer": 0,
      "byteLength": 119616,
      "name": "floatBufferViews",
      "target": 34963
    },
    {
      "buffer": 0,
      "byteLength": 230400,
      "byteOffset": 119616,
      "byteStride": 8,
      "name": "floatBufferViews",
      "target": 34962
    },
    {
      "buffer": 0,
      "byteLength": 691200,
      "byteOffset": 350016,
      "byteStride": 12,
      "name": "floatBufferViews",
      "target": 34962
    }
  ],
  "buffers": [
    {
      "byteLength": 1041216,
      "uri": "scene.bin"
    }
  ],
  "images": [
    {
      "uri": "textures/tank_tex_baseColor.png"
    }
  ],
  "materials": [
    {
      "doubleSided": true,
      "name": "tank_tex",
      "pbrMetallicRoughness": {
        "baseColorTexture": {
          "index": 0
        },
        "metallicFactor": 0.0,
        "roughnessFactor": 0.4
      }
    }
  ],
  "meshes": [
    {
      "name": "Object_0",
      "primitives": [
        {
          "attributes": {
            "NORMAL": 1,
            "POSITION": 0,
            "TEXCOORD_0": 2
          },
          "indices": 3,
          "material": 0,
          "mode": 4
        }
      ]
    },
    {
      "name": "Object_1",
      "primitives": [
        {
          "attributes": {
            "NORMAL": 5,
            "POSITION": 4,
            "TEXCOORD_0": 6
          },
          "indices": 7,
          "material": 0,
          "mode": 4
        }
      ]
    },
    {
      "name": "Object_2",
      "primitives": [
        {
          "attributes": {
            "NORMAL": 9,
            "POSITION": 8,
            "TEXCOORD_0": 10
          },
          "indices": 11,
          "material": 0,
          "mode": 4
        }
      ]
    },
    {
      "name": "Object_3",
      "primitives": [
        {
          "attributes": {
            "NORMAL": 13,
            "POSITION": 12,
            "TEXCOORD_0": 14
          },
          "indices": 15,
          "material": 0,
          "mode": 4
        }
      ]
    },
    {
      "name": "Object_4",
      "primitives": [
        {
          "attributes": {
            "NORMAL": 17,
            "POSITION": 16,
            "TEXCOORD_0": 18
          },
          "indices": 19,
          "material": 0,
          "mode": 4
        }
      ]
    }
  ],
  "nodes": [
    {
      "children": [
        1
      ],
      "matrix": [
        1.0,
        0.0,
        0.0,
        0.0,
        0.0,
        2.220446049250313e-16,
        -1.0,
        0.0,
        0.0,
        1.0,
        2.220446049250313e-16,
        0.0,
        0.0,
        0.0,
        0.0,
        1.0
      ],
      "name": "Sketchfab_model"
    },
    {
      "children": [
        2
      ],
      "name": "root"
    },
    {
      "children": [
        3,
        5,
        7,
        9,
        11
      ],
      "matrix": [
        1.0,
        0.0,
        0.0,
        0.0,
        0.0,
        2.220446049250313e-16,
        1.0,
        0.0,
        0.0,
        -1.0,
        2.220446049250313e-16,
        0.0,
        0.0,
        0.0,
        0.0,
        1.0
      ],
      "name": "GLTF_SceneRootNode"
    },
    {
      "children": [
        4
      ],
      "name": "btr70_body_0"
    },
    {
      "mesh": 0,
      "name": "Object_4"
    },
    {
      "children": [
        6
      ],
      "matrix": [
        1.0,
        0.0,
        0.0,
        0.0,
        0.0,
        1.0,
        0.0,
        0.0,
        0.0,
        0.0,
        1.0,
        0.0,
        -0.0018698330968618393,
        1.7365190982818604,
        0.8291819095611572,
        1.0
      ],
      "name": "btr70_turret_1"
    },
    {
      "mesh": 1,
      "name": "Object_6"
    },
    {
      "children": [
        8
      ],
      "name": "btr70_wheels_2"
    },
    {
      "mesh": 2,
      "name": "Object_8"
    },
    {
      "children": [
        10
      ],
      "name": "btr70_hatches_3"
    },
    {
      "mesh": 3,
      "name": "Object_10"
    },
    {
      "children": [
        12
      ],
      "name": "btr70_fuelcan_4"
    },
    {
      "mesh": 4,
      "name": "Object_12"
    }
  ],
  "samplers": [
    {
      "magFilter": 9729,
      "minFilter": 9987,
      "wrapS": 10497,
      "wrapT": 10497
    }
  ],
  "scene": 0,
  "scenes": [
    {
      "name": "Sketchfab_Scene",
      "nodes": [
        0
      ]
    }
  ],
  "textures": [
    {
      "sampler": 0,
      "source": 0
    }
  ]
}
